<?xml version="1.0" standalone="no"?>
<!DOCTYPE svg PUBLIC "-//W3C//DTD SVG 20010904//EN"
 "http://www.w3.org/TR/2001/REC-SVG-20010904/DTD/svg10.dtd">
<svg version="1.0" xmlns="http://www.w3.org/2000/svg"
 width="839.000000pt" height="504.000000pt" viewBox="0 0 839.000000 504.000000"
 preserveAspectRatio="xMidYMid meet">

<g transform="translate(0.000000,504.000000) scale(0.100000,-0.100000)"
fill="#000000" stroke="none">
<path d="M7042 4332 c-93 -34 -132 -88 -132 -185 0 -100 55 -151 202 -187 172
-42 188 -54 188 -133 0 -91 -67 -127 -198 -108 -41 6 -95 20 -120 31 -25 11
-46 19 -47 18 -1 -2 -8 -22 -17 -46 l-16 -42 26 -14 c58 -30 138 -46 226 -46
116 0 180 27 223 91 25 38 28 51 28 125 0 68 -4 87 -21 111 -42 56 -67 67
-281 123 -61 15 -87 40 -87 84 0 26 8 44 27 64 24 24 36 27 106 30 71 4 136
-8 197 -34 7 -3 16 8 22 23 5 15 13 35 16 44 5 12 -5 22 -46 39 -75 32 -222
38 -296 12z"/>
<path d="M2400 3986 l0 -356 55 0 55 0 0 155 0 156 91 -3 90 -3 67 -152 67
-153 58 0 c70 0 72 -15 -25 188 -49 104 -65 148 -56 151 7 2 29 20 50 40 43
43 63 106 54 170 -9 64 -35 102 -90 130 -46 24 -60 25 -232 29 l-184 4 0 -356z
m349 243 c38 -13 51 -35 51 -88 0 -86 -26 -101 -180 -101 l-110 0 0 100 0 100
104 0 c56 0 117 -5 135 -11z"/>
<path d="M5200 3985 l0 -355 50 0 50 0 0 155 0 155 94 0 93 0 68 -155 68 -155
58 0 c33 0 59 2 59 4 0 5 -82 182 -122 264 -17 34 -29 64 -27 65 52 35 79 63
93 92 23 47 23 135 2 183 -36 79 -113 102 -343 102 l-143 0 0 -355z m346 245
c39 -15 53 -39 54 -88 0 -35 -6 -49 -29 -73 -29 -29 -30 -29 -150 -29 l-121 0
0 100 0 100 109 0 c60 0 122 -5 137 -10z"/>
<path d="M690 3980 l0 -350 210 0 210 0 0 45 0 45 -155 0 -155 0 0 110 0 109
143 3 142 3 3 48 3 47 -145 0 -146 0 0 95 0 95 150 0 150 0 0 28 c0 15 3 37 6
50 l6 22 -211 0 -211 0 0 -350z"/>
<path d="M1210 3980 l0 -350 50 0 50 0 2 263 3 262 174 -262 173 -263 54 0 54
0 0 350 0 350 -45 0 -45 0 0 -260 c0 -143 -3 -260 -7 -260 -5 0 -84 117 -178
260 l-170 260 -57 0 -58 0 0 -350z"/>
<path d="M1832 4283 l3 -48 103 -3 102 -3 0 -299 0 -300 55 0 55 0 0 300 0
300 100 0 100 0 0 50 0 50 -261 0 -260 0 3 -47z"/>
<path d="M3020 3980 l0 -350 209 0 209 0 4 45 3 45 -157 0 -158 0 0 110 0 110
145 0 145 0 0 50 0 50 -145 0 -145 0 0 95 0 95 149 0 c164 0 161 -1 161 66 l0
34 -210 0 -210 0 0 -350z"/>
<path d="M3780 3980 l0 -350 50 0 50 0 0 247 c0 136 4 243 8 238 5 -6 51 -108
102 -227 l92 -218 48 0 48 0 82 193 c131 306 119 304 120 15 l0 -248 50 0 50
0 0 350 0 351 -62 -3 -62 -3 -109 -252 c-60 -139 -112 -251 -116 -249 -4 3
-56 117 -115 255 l-109 251 -64 0 -63 0 0 -350z"/>
<path d="M4789 4303 c-42 -112 -221 -578 -238 -621 l-21 -53 56 3 56 3 38 100
37 100 129 3 129 2 33 -92 c18 -51 36 -99 41 -106 5 -9 25 -12 58 -10 l51 3
-104 280 c-58 154 -116 310 -130 348 l-26 67 -49 0 c-45 0 -50 -3 -60 -27z
m104 -236 c20 -62 37 -118 37 -125 0 -8 -25 -12 -85 -12 -47 0 -85 3 -85 8 0
16 83 242 89 242 4 0 23 -51 44 -113z"/>
<path d="M5820 3980 l0 -350 210 0 210 0 0 45 0 45 -155 0 -155 0 0 110 0 109
143 3 142 3 3 48 3 47 -145 0 -146 0 0 95 0 95 150 0 150 0 0 28 c0 15 3 37 6
50 l6 22 -211 0 -211 0 0 -350z"/>
<path d="M6405 3998 c-70 -183 -130 -341 -133 -350 -4 -16 3 -18 47 -18 58 0
49 -12 105 138 l28 72 127 0 127 0 38 -105 39 -105 54 0 c47 0 54 2 49 18 -4
9 -62 166 -129 347 l-124 330 -50 3 -50 3 -128 -333z m222 63 c23 -66 39 -122
36 -125 -8 -8 -158 -8 -166 0 -6 6 75 244 83 244 3 0 24 -54 47 -119z"/>
<path d="M3005 3466 c-144 -36 -211 -59 -350 -122 -110 -49 -198 -93 -213
-106 -10 -8 -53 -36 -97 -63 -44 -27 -118 -76 -164 -110 -46 -33 -92 -65 -104
-72 -11 -6 -24 -19 -29 -27 -5 -9 -15 -16 -23 -16 -8 0 -20 -9 -27 -20 -7 -11
-17 -20 -21 -20 -5 0 -42 -27 -82 -60 -40 -33 -78 -60 -83 -60 -5 0 -17 -9
-27 -20 -17 -19 -225 -160 -255 -173 -8 -4 -33 -18 -55 -32 -22 -14 -58 -34
-80 -45 -22 -11 -47 -24 -55 -28 -31 -18 -107 -52 -175 -78 -75 -29 -133 -62
-85 -49 14 4 44 15 67 26 24 10 47 19 52 19 5 0 22 6 38 14 15 8 71 35 123 61
52 25 113 57 135 71 22 13 54 31 71 38 17 8 36 22 44 30 7 9 16 16 21 16 9 0
80 47 139 92 14 10 52 39 85 63 33 25 70 53 82 62 12 10 33 27 47 38 14 11 42
35 63 53 21 18 50 40 66 48 15 8 27 19 27 24 0 6 4 10 9 10 6 0 60 34 121 75
61 41 115 75 119 75 4 0 16 8 27 18 31 26 207 121 251 135 10 3 52 20 93 37
191 80 357 115 515 107 258 -13 429 -85 580 -244 45 -48 51 -56 81 -114 25
-47 29 -65 29 -140 0 -70 -4 -95 -24 -137 -14 -29 -27 -52 -30 -52 -4 0 -15
15 -25 34 -22 42 -99 126 -114 126 -7 0 -12 5 -12 10 0 6 -10 14 -22 19 -13 5
-46 19 -75 30 -79 32 -231 30 -332 -5 -42 -14 -83 -32 -92 -40 -8 -8 -19 -14
-23 -14 -5 0 -30 -18 -57 -41 -33 -27 -62 -65 -86 -113 -35 -66 -37 -77 -38
-161 0 -72 4 -97 20 -124 11 -18 26 -44 32 -56 28 -50 126 -107 248 -143 75
-23 315 -42 315 -26 0 5 -25 7 -55 6 -69 -5 -240 30 -320 65 -65 28 -135 77
-165 115 -25 33 -53 144 -47 193 11 97 37 154 96 213 32 32 82 70 112 84 62
30 171 58 226 58 53 0 184 -34 219 -56 64 -41 133 -126 153 -186 21 -63 51
-47 97 49 20 42 29 79 32 134 5 87 -11 143 -61 217 -36 54 -135 152 -153 152
-7 0 -17 6 -21 13 -22 35 -160 95 -293 127 -122 29 -340 27 -465 -4z"/>
<path d="M4810 2848 c-74 -34 -140 -68 -225 -114 -44 -24 -87 -47 -95 -51 -8
-3 -41 -24 -72 -45 -31 -21 -60 -38 -63 -38 -3 0 -32 -17 -63 -38 -32 -21 -64
-41 -72 -45 -8 -4 -37 -20 -65 -36 -74 -43 -178 -92 -260 -123 -51 -19 -72
-26 -180 -52 l-60 -14 42 -1 c54 -1 247 59 333 104 14 8 45 23 70 35 70 35
110 57 128 72 9 8 28 20 42 26 14 7 39 21 55 32 17 11 44 27 61 34 17 8 36 22
44 30 7 9 17 16 23 16 6 0 18 6 26 14 9 8 61 37 116 66 55 28 104 56 110 61 5
5 15 9 23 9 8 0 26 8 40 18 26 17 102 41 151 47 71 8 221 -54 221 -92 0 -7 12
-13 26 -13 24 0 25 2 13 17 -23 30 -61 57 -112 80 -66 31 -191 31 -257 1z"/>
<path d="M5074 2735 c-10 -8 -26 -15 -34 -15 -23 -1 -64 -41 -94 -92 -50 -86
-24 -175 69 -232 49 -30 52 -31 180 -31 141 0 140 0 290 70 112 52 202 89 276
112 12 3 19 -10 32 -60 28 -114 67 -141 190 -132 81 6 510 -9 555 -19 13 -3
96 -7 185 -9 89 -3 135 -3 102 -1 -33 2 -121 10 -195 18 -152 17 -472 30 -631
27 l-106 -2 -27 31 c-25 30 -56 114 -56 152 0 16 -5 18 -37 12 -21 -3 -58 -15
-82 -25 -24 -11 -50 -19 -58 -19 -9 0 -32 -8 -52 -18 -152 -78 -189 -94 -253
-112 -99 -27 -183 -26 -250 4 -101 45 -137 105 -117 195 8 35 21 56 57 88 26
24 54 43 62 43 8 0 24 7 34 15 20 15 20 15 0 15 -11 0 -29 -7 -40 -15z"/>
</g>
</svg>
