<?xml version="1.0" standalone="no"?>
<!DOCTYPE svg PUBLIC "-//W3C//DTD SVG 20010904//EN"
 "http://www.w3.org/TR/2001/REC-SVG-20010904/DTD/svg10.dtd">
<svg version="1.0" xmlns="http://www.w3.org/2000/svg"
 width="474.000000pt" height="364.000000pt" viewBox="0 0 474.000000 364.000000"
 preserveAspectRatio="xMidYMid meet">

<g transform="translate(0.000000,364.000000) scale(0.100000,-0.100000)"
fill="#000000" stroke="none">
<path d="M1595 2759 c-44 -11 -131 -44 -193 -74 -209 -101 -377 -223 -597
-435 -305 -294 -504 -448 -712 -551 -106 -53 -98 -48 -91 -55 10 -9 203 93
305 162 148 100 270 202 453 379 314 305 567 477 815 555 217 67 463 15 622
-133 157 -147 208 -315 148 -489 -19 -56 -31 -60 -40 -18 -7 31 -61 109 -99
143 -37 32 -119 66 -177 73 -158 18 -318 -77 -392 -233 -29 -62 -32 -77 -32
-163 0 -83 3 -101 27 -145 95 -182 355 -260 604 -181 108 35 209 95 409 243
327 241 429 303 504 303 55 0 115 -26 154 -66 l29 -28 -39 -13 c-123 -41 -185
-176 -134 -290 31 -66 84 -96 184 -101 95 -5 165 15 242 68 25 17 92 54 148
81 l102 49 8 -33 c24 -95 39 -136 56 -152 17 -15 48 -18 253 -21 130 -2 284
-11 348 -20 63 -8 144 -14 180 -12 60 3 55 4 -60 16 -178 19 -425 34 -567 36
-110 1 -124 3 -137 21 -20 25 -46 110 -46 146 0 15 -3 30 -8 33 -12 7 -143
-47 -217 -90 -36 -21 -87 -51 -113 -66 -129 -74 -295 -49 -347 53 -19 36 -19
132 -1 168 27 51 80 89 160 115 17 6 17 8 4 29 -25 38 -90 77 -149 89 -50 10
-64 9 -116 -9 -67 -22 -210 -117 -468 -307 -258 -190 -403 -256 -565 -256
-328 0 -514 254 -381 519 102 201 360 266 516 129 50 -45 87 -102 106 -165 7
-24 16 -43 20 -43 23 0 70 116 83 202 33 220 -171 470 -440 538 -102 26 -250
26 -359 -1z"/>
</g>
</svg>
